<?xml version="1.0" encoding="UTF-8" standalone="no"?>
<!DOCTYPE svg PUBLIC "-//W3C//DTD SVG 1.1//EN"
 "http://www.w3.org/Graphics/SVG/1.1/DTD/svg11.dtd">
<!-- Generated by graphviz version 2.43.0 (0)
 -->
<!-- Title: G Pages: 1 -->
<svg width="760pt" height="1524pt"
 viewBox="0.00 0.00 759.50 1524.00" xmlns="http://www.w3.org/2000/svg" xmlns:xlink="http://www.w3.org/1999/xlink">
<g id="graph0" class="graph" transform="scale(1 1) rotate(0) translate(4 1520)">
<title>G</title>
<polygon fill="white" stroke="transparent" points="-4,4 -4,-1520 755.5,-1520 755.5,4 -4,4"/>
<!-- 08048085 -->
<g id="node1" class="node">
<title>08048085</title>
<polygon fill="none" stroke="black" points="340,-913 124,-913 124,-877 340,-877 340,-913"/>
<text text-anchor="start" x="132" y="-891.3" font-family="Times,serif" font-size="14.00">08048085: call 0x080480d4</text>
</g>
<!-- 080480d4 -->
<g id="node11" class="node">
<title>080480d4</title>
<polygon fill="none" stroke="black" points="440,-841 262,-841 262,-788 440,-788 440,-841"/>
<text text-anchor="start" x="270" y="-825.8" font-family="Times,serif" font-size="14.00">080480d4: xor ecx,ecx</text>
<text text-anchor="start" x="270" y="-810.8" font-family="Times,serif" font-size="14.00">080480d6: not ecx</text>
<text text-anchor="start" x="270" y="-795.8" font-family="Times,serif" font-size="14.00">080480d8: ret</text>
</g>
<!-- 08048085&#45;&gt;080480d4 -->
<g id="edge2" class="edge">
<title>08048085&#45;&gt;080480d4</title>
<path fill="none" stroke="#1e3aac" d="M301,-876.73C301,-876.73 301,-851.25 301,-851.25"/>
<polygon fill="#1e3aac" stroke="#1e3aac" points="304.5,-851.25 301,-841.25 297.5,-851.25 304.5,-851.25"/>
</g>
<!-- 0804808a -->
<g id="node15" class="node">
<title>0804808a</title>
<polygon fill="none" stroke="black" points="243.5,-833.5 32.5,-833.5 32.5,-795.5 243.5,-795.5 243.5,-833.5"/>
<text text-anchor="start" x="40.5" y="-818.3" font-family="Times,serif" font-size="14.00">0804808a: test ecx,ecx</text>
<text text-anchor="start" x="40.5" y="-803.3" font-family="Times,serif" font-size="14.00">0804808c: jns 0x080480d9</text>
</g>
<!-- 08048085&#45;&gt;0804808a -->
<g id="edge1" class="edge">
<title>08048085:s&#45;&gt;0804808a:n</title>
<path fill="none" stroke="black" stroke-dasharray="1,5" d="M183.75,-877C183.75,-877 183.75,-843.5 183.75,-843.5"/>
<polygon fill="black" stroke="black" points="187.25,-843.5 183.75,-833.5 180.25,-843.5 187.25,-843.5"/>
</g>
<!-- 080480be -->
<g id="node2" class="node">
<title>080480be</title>
<polygon fill="none" stroke="black" points="262,-217 82,-217 82,-149 262,-149 262,-217"/>
<text text-anchor="start" x="90" y="-201.8" font-family="Times,serif" font-size="14.00">080480be: xor ebx,ebx</text>
<text text-anchor="start" x="90" y="-186.8" font-family="Times,serif" font-size="14.00">080480c0: xor eax,eax</text>
<text text-anchor="start" x="90" y="-171.8" font-family="Times,serif" font-size="14.00">080480c2: inc eax</text>
<text text-anchor="start" x="90" y="-156.8" font-family="Times,serif" font-size="14.00">080480c3: int 0x80</text>
</g>
<!-- 080480c5 -->
<g id="node5" class="node">
<title>080480c5</title>
<polygon fill="none" stroke="black" points="186,-113 0,-113 0,0 186,0 186,-113"/>
<text text-anchor="start" x="8" y="-97.8" font-family="Times,serif" font-size="14.00">080480c5: mov eax,0x4</text>
<text text-anchor="start" x="8" y="-82.8" font-family="Times,serif" font-size="14.00">080480ca: xor ebx,ebx</text>
<text text-anchor="start" x="8" y="-67.8" font-family="Times,serif" font-size="14.00">080480cc: inc ebx</text>
<text text-anchor="start" x="8" y="-52.8" font-family="Times,serif" font-size="14.00">080480cd: mov edx,ecx</text>
<text text-anchor="start" x="8" y="-37.8" font-family="Times,serif" font-size="14.00">080480cf: mov ecx,ebp</text>
<text text-anchor="start" x="8" y="-22.8" font-family="Times,serif" font-size="14.00">080480d1: int 0x80</text>
<text text-anchor="start" x="8" y="-7.8" font-family="Times,serif" font-size="14.00">080480d3: ret</text>
</g>
<!-- 080480be&#45;&gt;080480c5 -->
<g id="edge3" class="edge">
<title>080480be:s&#45;&gt;080480c5:n</title>
<path fill="none" stroke="black" stroke-dasharray="1,5" d="M134,-149C134,-149 134,-123.5 134,-123.5"/>
<polygon fill="black" stroke="black" points="137.5,-123.5 134,-113.5 130.5,-123.5 137.5,-123.5"/>
</g>
<!-- 0804808e -->
<g id="node3" class="node">
<title>0804808e</title>
<polygon fill="none" stroke="black" points="252.5,-752 23.5,-752 23.5,-684 252.5,-684 252.5,-752"/>
<text text-anchor="start" x="31.5" y="-736.8" font-family="Times,serif" font-size="14.00">0804808e: scasb.repne es:edi</text>
<text text-anchor="start" x="31.5" y="-721.8" font-family="Times,serif" font-size="14.00">08048090: not ecx</text>
<text text-anchor="start" x="31.5" y="-706.8" font-family="Times,serif" font-size="14.00">08048092: xor ebx,ebx</text>
<text text-anchor="start" x="31.5" y="-691.8" font-family="Times,serif" font-size="14.00">08048094: call 0x080480c5</text>
</g>
<!-- 0804808e&#45;&gt;080480c5 -->
<g id="edge5" class="edge">
<title>0804808e&#45;&gt;080480c5</title>
<path fill="none" stroke="#1e3aac" d="M36.5,-683.83C36.5,-683.83 36.5,-123.2 36.5,-123.2"/>
<polygon fill="#1e3aac" stroke="#1e3aac" points="40,-123.2 36.5,-113.2 33,-123.2 40,-123.2"/>
</g>
<!-- 08048099 -->
<g id="node8" class="node">
<title>08048099</title>
<polygon fill="none" stroke="black" points="288.5,-648 85.5,-648 85.5,-610 288.5,-610 288.5,-648"/>
<text text-anchor="start" x="93.5" y="-632.8" font-family="Times,serif" font-size="14.00">08048099: test ebx,ebx</text>
<text text-anchor="start" x="93.5" y="-617.8" font-family="Times,serif" font-size="14.00">0804809b: jz 0x080480be</text>
</g>
<!-- 0804808e&#45;&gt;08048099 -->
<g id="edge4" class="edge">
<title>0804808e:s&#45;&gt;08048099:n</title>
<path fill="none" stroke="black" stroke-dasharray="1,5" d="M169,-684C169,-684 169,-658 169,-658"/>
<polygon fill="black" stroke="black" points="172.5,-658 169,-648 165.5,-658 172.5,-658"/>
</g>
<!-- 080480db -->
<g id="node4" class="node">
<title>080480db</title>
<polygon fill="none" stroke="black" points="725,-913 509,-913 509,-877 725,-877 725,-913"/>
<text text-anchor="start" x="517" y="-891.3" font-family="Times,serif" font-size="14.00">080480db: call 0x080480d4</text>
</g>
<!-- 080480db&#45;&gt;080480d4 -->
<g id="edge6" class="edge">
<title>080480db&#45;&gt;080480d4</title>
<path fill="none" stroke="#1e3aac" d="M521.75,-876.98C521.75,-859.63 521.75,-836 521.75,-836 521.75,-836 450.38,-836 450.38,-836"/>
<polygon fill="#1e3aac" stroke="#1e3aac" points="450.38,-832.5 440.38,-836 450.38,-839.5 450.38,-832.5"/>
</g>
<!-- 080480e0 -->
<g id="node17" class="node">
<title>080480e0</title>
<polygon fill="none" stroke="black" points="751.5,-832.5 534.5,-832.5 534.5,-796.5 751.5,-796.5 751.5,-832.5"/>
<text text-anchor="start" x="542.5" y="-810.8" font-family="Times,serif" font-size="14.00">080480e0: jmp 0x080480be</text>
</g>
<!-- 080480db&#45;&gt;080480e0 -->
<g id="edge7" class="edge">
<title>080480db:s&#45;&gt;080480e0:n</title>
<path fill="none" stroke="black" stroke-dasharray="1,5" d="M629.75,-877C629.75,-877 629.75,-842.5 629.75,-842.5"/>
<polygon fill="black" stroke="black" points="633.25,-842.5 629.75,-832.5 626.25,-842.5 633.25,-842.5"/>
</g>
<!-- 080480c5&#45;&gt;08048099 -->
<!-- 0804807d -->
<g id="node6" class="node">
<title>0804807d</title>
<polygon fill="none" stroke="black" points="367.5,-1129 96.5,-1129 96.5,-1093 367.5,-1093 367.5,-1129"/>
<text text-anchor="start" x="104.5" y="-1107.3" font-family="Times,serif" font-size="14.00">0804807d: mov byte ptr [ebp],0x20</text>
</g>
<!-- 08048081 -->
<g id="node19" class="node">
<title>08048081</title>
<polygon fill="none" stroke="black" points="321.5,-1057 142.5,-1057 142.5,-1021 321.5,-1021 321.5,-1057"/>
<text text-anchor="start" x="150.5" y="-1035.3" font-family="Times,serif" font-size="14.00">08048081: xor eax,eax</text>
</g>
<!-- 0804807d&#45;&gt;08048081 -->
<g id="edge9" class="edge">
<title>0804807d:s&#45;&gt;08048081:n</title>
<path fill="none" stroke="black" d="M232,-1093C232,-1093 232,-1067 232,-1067"/>
<polygon fill="black" stroke="black" points="235.5,-1067 232,-1057 228.5,-1067 235.5,-1067"/>
</g>
<!-- 08048076 -->
<g id="node7" class="node">
<title>08048076</title>
<polygon fill="none" stroke="black" points="351,-1218 113,-1218 113,-1165 351,-1165 351,-1218"/>
<text text-anchor="start" x="121" y="-1202.8" font-family="Times,serif" font-size="14.00">08048076: lea ebp,[edi + &#45;0x1]</text>
<text text-anchor="start" x="121" y="-1187.8" font-family="Times,serif" font-size="14.00">08048079: test ebp,ebp</text>
<text text-anchor="start" x="121" y="-1172.8" font-family="Times,serif" font-size="14.00">0804807b: jc 0x08048076</text>
</g>
<!-- 08048076&#45;&gt;0804807d -->
<g id="edge11" class="edge">
<title>08048076:s&#45;&gt;0804807d:n</title>
<path fill="none" stroke="#ff5733" d="M271.67,-1165.5C271.67,-1165.5 271.67,-1139 271.67,-1139"/>
<polygon fill="#ff5733" stroke="#ff5733" points="275.17,-1139 271.67,-1129 268.17,-1139 275.17,-1139"/>
<text text-anchor="middle" x="268.67" y="-1154.3" font-family="Times,serif" font-size="14.00" fill="#ff5733">f</text>
</g>
<!-- 08048076&#45;&gt;08048076 -->
<g id="edge10" class="edge">
<title>08048076&#45;&gt;08048076</title>
<path fill="none" stroke="#25ac1e" d="M192.33,-1228.16C192.33,-1228.16 192.33,-1236 192.33,-1236 192.33,-1236 104.75,-1236 104.75,-1236 104.75,-1236 104.75,-1147 104.75,-1147 104.75,-1147 192.33,-1147 192.33,-1147 192.33,-1147 192.33,-1155.37 192.33,-1164.84"/>
<polygon fill="#25ac1e" stroke="#25ac1e" points="195.83,-1228.16 192.33,-1218.16 188.83,-1228.16 195.83,-1228.16"/>
<text text-anchor="middle" x="188.83" y="-1153.64" font-family="Times,serif" font-size="14.00" fill="#25ac1e">t</text>
</g>
<!-- 08048099&#45;&gt;080480be -->
<g id="edge13" class="edge">
<title>08048099&#45;&gt;080480be</title>
<path fill="none" stroke="#25ac1e" d="M85.34,-622C71.81,-622 62.5,-622 62.5,-622 62.5,-622 62.5,-183 62.5,-183 62.5,-183 71.82,-183 71.82,-183"/>
<polygon fill="#25ac1e" stroke="#25ac1e" points="71.82,-186.5 81.82,-183 71.82,-179.5 71.82,-186.5"/>
<text text-anchor="middle" x="81.84" y="-625.8" font-family="Times,serif" font-size="14.00" fill="#25ac1e">t</text>
</g>
<!-- 0804809d -->
<g id="node12" class="node">
<title>0804809d</title>
<polygon fill="none" stroke="black" points="350,-574 138,-574 138,-536 350,-536 350,-574"/>
<text text-anchor="start" x="146" y="-558.8" font-family="Times,serif" font-size="14.00">0804809d: dec esi</text>
<text text-anchor="start" x="146" y="-543.8" font-family="Times,serif" font-size="14.00">0804809e: jnz 0x08048076</text>
</g>
<!-- 08048099&#45;&gt;0804809d -->
<g id="edge12" class="edge">
<title>08048099:s&#45;&gt;0804809d:n</title>
<path fill="none" stroke="#ff5733" d="M213.25,-610C213.25,-610 213.25,-584 213.25,-584"/>
<polygon fill="#ff5733" stroke="#ff5733" points="216.75,-584 213.25,-574 209.75,-584 216.75,-584"/>
<text text-anchor="middle" x="210.25" y="-598.8" font-family="Times,serif" font-size="14.00" fill="#ff5733">f</text>
</g>
<!-- 080480b1 -->
<g id="node9" class="node">
<title>080480b1</title>
<polygon fill="none" stroke="black" points="287,-351 99,-351 99,-253 287,-253 287,-351"/>
<text text-anchor="start" x="107" y="-335.8" font-family="Times,serif" font-size="14.00">080480b1: mov eax,0x4</text>
<text text-anchor="start" x="107" y="-320.8" font-family="Times,serif" font-size="14.00">080480b6: mov ecx,esp</text>
<text text-anchor="start" x="107" y="-305.8" font-family="Times,serif" font-size="14.00">080480b8: xor edx,edx</text>
<text text-anchor="start" x="107" y="-290.8" font-family="Times,serif" font-size="14.00">080480ba: inc edx</text>
<text text-anchor="start" x="107" y="-275.8" font-family="Times,serif" font-size="14.00">080480bb: inc edx</text>
<text text-anchor="start" x="107" y="-260.8" font-family="Times,serif" font-size="14.00">080480bc: int 0x80</text>
</g>
<!-- 080480b1&#45;&gt;080480be -->
<g id="edge14" class="edge">
<title>080480b1:s&#45;&gt;080480be:n</title>
<path fill="none" stroke="black" stroke-dasharray="1,5" d="M180.5,-253C180.5,-253 180.5,-227 180.5,-227"/>
<polygon fill="black" stroke="black" points="184,-227 180.5,-217 177,-227 184,-227"/>
</g>
<!-- 08048054 -->
<g id="node10" class="node">
<title>08048054</title>
<polygon fill="none" stroke="black" points="366,-1516 98,-1516 98,-1448 366,-1448 366,-1516"/>
<text text-anchor="start" x="106" y="-1500.8" font-family="Times,serif" font-size="14.00">08048054: cld</text>
<text text-anchor="start" x="106" y="-1485.8" font-family="Times,serif" font-size="14.00">08048055: mov esi,dword ptr [esp]</text>
<text text-anchor="start" x="106" y="-1470.8" font-family="Times,serif" font-size="14.00">08048058: dec esi</text>
<text text-anchor="start" x="106" y="-1455.8" font-family="Times,serif" font-size="14.00">08048059: jz 0x080480a0</text>
</g>
<!-- 080480a0 -->
<g id="node13" class="node">
<title>080480a0</title>
<polygon fill="none" stroke="black" points="386.5,-500 75.5,-500 75.5,-387 386.5,-387 386.5,-500"/>
<text text-anchor="start" x="83.5" y="-484.8" font-family="Times,serif" font-size="14.00">080480a0: push 0xa0d</text>
<text text-anchor="start" x="83.5" y="-469.8" font-family="Times,serif" font-size="14.00">080480a4: xor ebx,ebx</text>
<text text-anchor="start" x="83.5" y="-454.8" font-family="Times,serif" font-size="14.00">080480a6: inc ebx</text>
<text text-anchor="start" x="83.5" y="-439.8" font-family="Times,serif" font-size="14.00">080480a7: lea eax,[edi + edi*0x2 + &#45;0x1]</text>
<text text-anchor="start" x="83.5" y="-424.8" font-family="Times,serif" font-size="14.00">080480ab: mul edi</text>
<text text-anchor="start" x="83.5" y="-409.8" font-family="Times,serif" font-size="14.00">080480ad: test eax,ebx</text>
<text text-anchor="start" x="83.5" y="-394.8" font-family="Times,serif" font-size="14.00">080480af: jnz 0x080480d4</text>
</g>
<!-- 08048054&#45;&gt;080480a0 -->
<g id="edge16" class="edge">
<title>08048054&#45;&gt;080480a0</title>
<path fill="none" stroke="#25ac1e" d="M97.72,-1482C49.98,-1482 7.83,-1482 7.83,-1482 7.83,-1482 7.83,-443 7.83,-443 7.83,-443 65.4,-443 65.4,-443"/>
<polygon fill="#25ac1e" stroke="#25ac1e" points="65.4,-446.5 75.4,-443 65.4,-439.5 65.4,-446.5"/>
<text text-anchor="middle" x="94.22" y="-1485.8" font-family="Times,serif" font-size="14.00" fill="#25ac1e">t</text>
</g>
<!-- 0804805b -->
<g id="node14" class="node">
<title>0804805b</title>
<polygon fill="none" stroke="black" points="391.5,-1412 72.5,-1412 72.5,-1254 391.5,-1254 391.5,-1412"/>
<text text-anchor="start" x="80.5" y="-1396.8" font-family="Times,serif" font-size="14.00">0804805b: mov edi,dword ptr [esp + 0x8]</text>
<text text-anchor="start" x="80.5" y="-1381.8" font-family="Times,serif" font-size="14.00">0804805f: mov ebp,edi</text>
<text text-anchor="start" x="80.5" y="-1366.8" font-family="Times,serif" font-size="14.00">08048061: lea eax,[esp + &#45;0x4]</text>
<text text-anchor="start" x="80.5" y="-1351.8" font-family="Times,serif" font-size="14.00">08048065: mul eax</text>
<text text-anchor="start" x="80.5" y="-1336.8" font-family="Times,serif" font-size="14.00">08048067: lea ebx,[eax + eax*0x8 + &#45;0x1]</text>
<text text-anchor="start" x="80.5" y="-1321.8" font-family="Times,serif" font-size="14.00">0804806b: sub ebx,eax</text>
<text text-anchor="start" x="80.5" y="-1306.8" font-family="Times,serif" font-size="14.00">0804806d: movzx eax,byte ptr [edi]</text>
<text text-anchor="start" x="80.5" y="-1291.8" font-family="Times,serif" font-size="14.00">08048070: mul eax</text>
<text text-anchor="start" x="80.5" y="-1276.8" font-family="Times,serif" font-size="14.00">08048072: cmp ebx,eax</text>
<text text-anchor="start" x="80.5" y="-1261.8" font-family="Times,serif" font-size="14.00">08048074: jnz 0x08048081</text>
</g>
<!-- 08048054&#45;&gt;0804805b -->
<g id="edge15" class="edge">
<title>08048054:s&#45;&gt;0804805b:n</title>
<path fill="none" stroke="#ff5733" d="M232,-1448C232,-1448 232,-1422 232,-1422"/>
<polygon fill="#ff5733" stroke="#ff5733" points="235.5,-1422 232,-1412 228.5,-1422 235.5,-1422"/>
<text text-anchor="middle" x="229" y="-1436.8" font-family="Times,serif" font-size="14.00" fill="#ff5733">f</text>
</g>
<!-- 080480d4&#45;&gt;0804808a -->
<!-- 080480d4&#45;&gt;080480e0 -->
<!-- 0804809d&#45;&gt;08048076 -->
<g id="edge19" class="edge">
<title>0804809d&#45;&gt;08048076</title>
<path fill="none" stroke="#25ac1e" d="M137.85,-555C78.23,-555 15.67,-555 15.67,-555 15.67,-555 15.67,-1191 15.67,-1191 15.67,-1191 102.76,-1191 102.76,-1191"/>
<polygon fill="#25ac1e" stroke="#25ac1e" points="102.76,-1194.5 112.76,-1191 102.76,-1187.5 102.76,-1194.5"/>
<text text-anchor="middle" x="134.35" y="-558.8" font-family="Times,serif" font-size="14.00" fill="#25ac1e">t</text>
</g>
<!-- 0804809d&#45;&gt;080480a0 -->
<g id="edge20" class="edge">
<title>0804809d:s&#45;&gt;080480a0:n</title>
<path fill="none" stroke="#ff5733" d="M244,-536C244,-536 244,-510.5 244,-510.5"/>
<polygon fill="#ff5733" stroke="#ff5733" points="247.5,-510.5 244,-500.5 240.5,-510.5 247.5,-510.5"/>
<text text-anchor="middle" x="241" y="-524.8" font-family="Times,serif" font-size="14.00" fill="#ff5733">f</text>
</g>
<!-- 080480a0&#45;&gt;080480b1 -->
<g id="edge21" class="edge">
<title>080480a0:s&#45;&gt;080480b1:n</title>
<path fill="none" stroke="#ff5733" d="M193,-386.5C193,-386.5 193,-361 193,-361"/>
<polygon fill="#ff5733" stroke="#ff5733" points="196.5,-361 193,-351 189.5,-361 196.5,-361"/>
<text text-anchor="middle" x="190" y="-375.3" font-family="Times,serif" font-size="14.00" fill="#ff5733">f</text>
</g>
<!-- 080480a0&#45;&gt;080480d4 -->
<g id="edge22" class="edge">
<title>080480a0&#45;&gt;080480d4</title>
<path fill="none" stroke="#25ac1e" d="M368.25,-500.25C368.25,-500.25 368.25,-777.62 368.25,-777.62"/>
<polygon fill="#25ac1e" stroke="#25ac1e" points="364.75,-777.62 368.25,-787.62 371.75,-777.62 364.75,-777.62"/>
<text text-anchor="middle" x="364.75" y="-504.05" font-family="Times,serif" font-size="14.00" fill="#25ac1e">t</text>
</g>
<!-- 0804805b&#45;&gt;08048076 -->
<g id="edge23" class="edge">
<title>0804805b:s&#45;&gt;08048076:n</title>
<path fill="none" stroke="#ff5733" d="M271.67,-1254C271.67,-1254 271.67,-1227.5 271.67,-1227.5"/>
<polygon fill="#ff5733" stroke="#ff5733" points="275.17,-1227.5 271.67,-1217.5 268.17,-1227.5 275.17,-1227.5"/>
<text text-anchor="middle" x="268.67" y="-1242.8" font-family="Times,serif" font-size="14.00" fill="#ff5733">f</text>
</g>
<!-- 0804805b&#45;&gt;08048081 -->
<g id="edge24" class="edge">
<title>0804805b&#45;&gt;08048081</title>
<path fill="none" stroke="#25ac1e" d="M84.5,-1253.83C84.5,-1166.75 84.5,-1039 84.5,-1039 84.5,-1039 132.37,-1039 132.37,-1039"/>
<polygon fill="#25ac1e" stroke="#25ac1e" points="132.37,-1042.5 142.37,-1039 132.37,-1035.5 132.37,-1042.5"/>
<text text-anchor="middle" x="81" y="-1242.63" font-family="Times,serif" font-size="14.00" fill="#25ac1e">t</text>
</g>
<!-- 0804808a&#45;&gt;0804808e -->
<g id="edge25" class="edge">
<title>0804808a:s&#45;&gt;0804808e:n</title>
<path fill="none" stroke="#ff5733" d="M138,-795.5C138,-795.5 138,-762 138,-762"/>
<polygon fill="#ff5733" stroke="#ff5733" points="141.5,-762 138,-752 134.5,-762 141.5,-762"/>
<text text-anchor="middle" x="135" y="-784.3" font-family="Times,serif" font-size="14.00" fill="#ff5733">f</text>
</g>
<!-- 080480d9 -->
<g id="node16" class="node">
<title>080480d9</title>
<polygon fill="none" stroke="black" points="723,-985 511,-985 511,-949 723,-949 723,-985"/>
<text text-anchor="start" x="519" y="-963.3" font-family="Times,serif" font-size="14.00">080480d9: jns 0x080480be</text>
</g>
<!-- 0804808a&#45;&gt;080480d9 -->
<g id="edge26" class="edge">
<title>0804808a&#45;&gt;080480d9</title>
<path fill="none" stroke="#25ac1e" d="M105.67,-833.75C105.67,-865.41 105.67,-925 105.67,-925 105.67,-925 581.67,-925 581.67,-925 581.67,-925 581.67,-938.94 581.67,-938.94"/>
<polygon fill="#25ac1e" stroke="#25ac1e" points="578.17,-938.94 581.67,-948.94 585.17,-938.94 578.17,-938.94"/>
<text text-anchor="middle" x="102.17" y="-837.55" font-family="Times,serif" font-size="14.00" fill="#25ac1e">t</text>
</g>
<!-- 080480d9&#45;&gt;080480be -->
<g id="edge27" class="edge">
<title>080480d9&#45;&gt;080480be</title>
<path fill="none" stroke="#25ac1e" d="M510.83,-967C490.03,-967 474.5,-967 474.5,-967 474.5,-967 474.5,-194 474.5,-194 474.5,-194 272.35,-194 272.35,-194"/>
<polygon fill="#25ac1e" stroke="#25ac1e" points="272.35,-190.5 262.35,-194 272.35,-197.5 272.35,-190.5"/>
<text text-anchor="middle" x="507.33" y="-970.8" font-family="Times,serif" font-size="14.00" fill="#25ac1e">t</text>
</g>
<!-- 080480d9&#45;&gt;080480db -->
<g id="edge28" class="edge">
<title>080480d9:s&#45;&gt;080480db:n</title>
<path fill="none" stroke="#ff5733" d="M652.33,-949C652.33,-949 652.33,-923 652.33,-923"/>
<polygon fill="#ff5733" stroke="#ff5733" points="655.83,-923 652.33,-913 648.83,-923 655.83,-923"/>
<text text-anchor="middle" x="649.33" y="-937.8" font-family="Times,serif" font-size="14.00" fill="#ff5733">f</text>
</g>
<!-- 080480e0&#45;&gt;080480be -->
<g id="edge29" class="edge">
<title>080480e0&#45;&gt;080480be</title>
<path fill="none" stroke="black" d="M643,-796.28C643,-691.56 643,-171 643,-171 643,-171 272.26,-171 272.26,-171"/>
<polygon fill="black" stroke="black" points="272.26,-167.5 262.26,-171 272.26,-174.5 272.26,-167.5"/>
</g>
<!-- 08048083 -->
<g id="node18" class="node">
<title>08048083</title>
<polygon fill="none" stroke="black" points="338,-985 126,-985 126,-949 338,-949 338,-985"/>
<text text-anchor="start" x="134" y="-963.3" font-family="Times,serif" font-size="14.00">08048083: jnz 0x08048083</text>
</g>
<!-- 08048083&#45;&gt;08048085 -->
<g id="edge31" class="edge">
<title>08048083:s&#45;&gt;08048085:n</title>
<path fill="none" stroke="#ff5733" d="M267.33,-949C267.33,-949 267.33,-923 267.33,-923"/>
<polygon fill="#ff5733" stroke="#ff5733" points="270.83,-923 267.33,-913 263.83,-923 270.83,-923"/>
<text text-anchor="middle" x="264.33" y="-937.8" font-family="Times,serif" font-size="14.00" fill="#ff5733">f</text>
</g>
<!-- 08048083&#45;&gt;08048083 -->
<g id="edge30" class="edge">
<title>08048083&#45;&gt;08048083</title>
<path fill="none" stroke="#25ac1e" d="M134.25,-995.42C134.25,-995.42 134.25,-1003 134.25,-1003 134.25,-1003 114.83,-1003 114.83,-1003 114.83,-1003 114.83,-937 114.83,-937 114.83,-937 196.67,-937 196.67,-937 196.67,-937 196.67,-942.54 196.67,-948.86"/>
<polygon fill="#25ac1e" stroke="#25ac1e" points="137.75,-995.42 134.25,-985.42 130.75,-995.42 137.75,-995.42"/>
<text text-anchor="middle" x="193.17" y="-937.66" font-family="Times,serif" font-size="14.00" fill="#25ac1e">t</text>
</g>
<!-- 08048081&#45;&gt;08048083 -->
<g id="edge32" class="edge">
<title>08048081:s&#45;&gt;08048083:n</title>
<path fill="none" stroke="black" d="M232,-1021C232,-1021 232,-995 232,-995"/>
<polygon fill="black" stroke="black" points="235.5,-995 232,-985 228.5,-995 235.5,-995"/>
</g>
</g>
</svg>
